<svg xmlns="http://www.w3.org/2000/svg" viewBox="0 0 512 512">
  <defs>
    <linearGradient id="bg" x1="0%" y1="0%" x2="100%" y2="100%">
      <stop offset="0%" stop-color="#0f172a" />
      <stop offset="100%" stop-color="#1d4ed8" />
    </linearGradient>
    <linearGradient id="card" x1="0%" y1="0%" x2="100%" y2="100%">
      <stop offset="0%" stop-color="#f8fbff" />
      <stop offset="100%" stop-color="#dbeafe" />
    </linearGradient>
  </defs>
  <rect width="512" height="512" fill="url(#bg)" />
  <rect x="92" y="92" width="328" height="328" rx="96" fill="#2563eb" />
  <rect x="132" y="126" width="248" height="260" rx="72" fill="url(#card)" />
  <path d="M188 198h136c17.7 0 32 14.3 32 32v6c0 17.7-14.3 32-32 32H188c-17.7 0-32-14.3-32-32v-6c0-17.7 14.3-32 32-32Z" fill="#bfdbfe" />
  <path d="M194 246h124M194 294h76M194 340h100" stroke="#60a5fa" stroke-width="20" stroke-linecap="round" />
  <path d="M306 274l-52 76M340 274l-52 76" stroke="#020617" stroke-width="22" stroke-linecap="round" />
  <circle cx="338" cy="244" r="24" fill="#020617" />
  <circle cx="262" cy="370" r="24" fill="#020617" />
</svg>
